<svg id="Capa_1" enable-background="new 0 0 512 512" height="512" viewBox="0 0 512 512" width="512" xmlns="http://www.w3.org/2000/svg"><g><path d="m220.549 118.286c9.042 0 17.764 1.363 25.977 3.89v-44.887c-6.966 6.028-16.042 9.683-25.976 9.683s-19.01-3.655-25.976-9.683v44.887c8.211-2.527 16.934-3.89 25.975-3.89z" fill="#eaeaea"/><g><g><path d="m228.49 86.167v32.487c6.219.556 12.255 1.744 18.035 3.522v-44.887c-5.057 4.377-11.231 7.494-18.035 8.878z" fill="#cbcbcb"/></g></g><path d="m220.549 7.515h-121.475c-9.28 0-16.803 7.523-16.803 16.803s7.523 16.803 16.803 16.803h82.217c2.945-19.034 19.399-33.606 39.258-33.606z" fill="#dd636e"/><path d="m99.074 24.318c-6.216 0-11.63-3.384-14.537-8.402-1.433 2.474-2.266 5.337-2.266 8.402 0 9.28 7.523 16.803 16.803 16.803h82.217c.958-6.191 3.352-11.904 6.82-16.803z" fill="#da4a54"/><path d="m180.82 47.244c0-2.084.162-4.129.471-6.127l-84.213 42.022c-8.304 4.144-11.676 14.234-7.533 22.538 4.144 8.304 14.234 11.676 22.538 7.533l78.94-39.39c-6.341-7.04-10.203-16.357-10.203-26.576z" fill="#dd636e"/><g><g><g><path d="m182.88 59.888-76.3 38.073c-6.291 3.139-13.603 1.957-18.583-2.409-.531 3.34-.077 6.868 1.548 10.124 4.144 8.304 14.234 11.676 22.538 7.533l78.94-39.39c-3.597-3.994-6.394-8.722-8.143-13.931z" fill="#da4a54"/></g></g></g><ellipse cx="220.549" cy="47.243" fill="#eaeaea" rx="39.729" ry="39.729" transform="matrix(.707 -.707 .707 .707 31.191 169.789)"/><path d="m220.549 7.515c-3.103 0-6.119.367-9.018 1.04 17.595 4.086 30.711 19.85 30.711 38.688s-13.116 34.603-30.711 38.688c2.899.673 5.914 1.041 9.018 1.041 21.942 0 39.729-17.787 39.729-39.729 0-21.941-17.787-39.728-39.729-39.728z" fill="#cbcbcb"/><path d="m289.833 32.404h-32.431c1.849 4.586 2.876 9.592 2.876 14.84s-1.027 10.254-2.876 14.84h32.431c46.046 0 83.507 37.461 83.507 83.506v101.888h29.68v-101.888c0-62.411-50.776-113.186-113.187-113.186z" fill="#8c808a"/><path d="m289.833 32.404h-14.84c62.411 0 113.187 50.775 113.187 113.186v101.888h14.84v-101.888c0-62.411-50.776-113.186-113.187-113.186z" fill="#7b7179"/><path d="m429.732 394.057h-83.105l26.712-146.579h29.681z" fill="#dd636e"/><path d="m403.02 247.478h-14.838l26.713 146.579h14.837z" fill="#da4a54"/><path d="m284.016 504.485h-126.934c-13.66 0-24.734-11.074-24.734-24.734v-273.265c0-48.712 39.489-88.201 88.201-88.201 48.712 0 88.201 39.489 88.201 88.201v273.265c0 13.661-11.074 24.734-24.734 24.734z" fill="#dd636e"/><path d="m220.549 118.286c-3.044 0-6.053.154-9.018.455 44.476 4.517 79.183 42.078 79.183 87.745v273.265c0 13.66-11.074 24.734-24.734 24.734h18.035c13.66 0 24.734-11.074 24.734-24.734v-273.265c.001-48.711-39.488-88.2-88.2-88.2z" fill="#da4a54"/><path d="m132.349 231.003h176.401v163.054h-176.401z" fill="#f9ef63"/><path d="m290.715 231.003h18.035v163.054h-18.035z" fill="#f1d333"/><ellipse cx="220.549" cy="47.243" fill="#8c808a" rx="14.949" ry="14.949" transform="matrix(.707 -.707 .707 .707 31.191 169.789)"/><g><path d="m198.086 47.244c0 12.386 10.077 22.463 22.464 22.463 12.386 0 22.463-10.077 22.463-22.463 0-12.387-10.077-22.464-22.463-22.464-12.387 0-22.464 10.077-22.464 22.464zm29.897 0c0 4.099-3.335 7.434-7.434 7.434s-7.434-3.335-7.434-7.434 3.335-7.435 7.434-7.435c4.1 0 7.434 3.335 7.434 7.435z"/><path d="m437.125 392.709-26.591-145.913v-54.306c0-4.15-3.364-7.515-7.515-7.515s-7.515 3.364-7.515 7.515v47.473h-14.651v-94.373c0-50.189-40.832-91.02-91.021-91.02h-22.611c.758-4.847.758-9.804 0-14.651h22.611c58.267 0 105.671 47.404 105.671 105.672v16.842c0 4.15 3.364 7.515 7.515 7.515s7.515-3.365 7.515-7.515v-16.843c0-66.555-54.146-120.701-120.701-120.701h-27.676c-7.985-14.805-23.639-24.889-41.607-24.889h-121.475c-13.409 0-24.318 10.909-24.318 24.318s10.909 24.318 24.318 24.318h50.32l-55.671 27.78c-11.998 5.987-16.888 20.618-10.902 32.617 5.909 11.842 20.757 16.819 32.617 10.902l20.592-10.275c3.714-1.853 5.222-6.366 3.369-10.079s-6.365-5.223-10.079-3.369l-20.591 10.275c-4.534 2.264-10.202.361-12.458-4.164-2.262-4.536-.362-10.2 4.164-12.458l73.272-36.565c.824 6.4 2.929 12.401 6.056 17.74l-23.541 11.747c-3.428 1.711-5.035 5.867-3.651 9.439 1.576 4.068 6.452 5.96 10.361 4.009l24.126-12.038v32.627c-36.309 13.606-62.224 48.663-62.224 89.664v99.252c0 4.15 3.364 7.515 7.515 7.515 4.15 0 7.515-3.365 7.515-7.515v-67.221h161.372v148.025h-161.372v-50.745c0-4.15-3.365-7.515-7.515-7.515s-7.515 3.364-7.515 7.515v143.955c0 17.782 14.466 32.248 32.248 32.248h126.934c17.782 0 32.249-14.466 32.249-32.248v-273.268c0-41.001-25.916-76.058-62.225-89.664v-36.3c3.2-3.221 5.944-6.895 8.117-10.923h27.676c41.902 0 75.991 34.09 75.991 75.991v101.206l-26.591 145.913c-.827 4.545 2.777 8.862 7.393 8.862h83.105c4.616 0 8.221-4.317 7.394-8.862zm-135.89 87.043c0 9.495-7.724 17.219-17.219 17.219h-126.934c-9.495 0-17.219-7.724-17.219-17.219v-78.181h161.372zm-48.471-432.508c0 17.763-14.451 32.214-32.214 32.214s-32.214-14.451-32.214-32.214 14.451-32.214 32.214-32.214c17.763-.001 32.214 14.45 32.214 32.214zm-13.753 43.479v21.842c-12.16-2.386-24.763-2.386-36.923 0v-21.837c11.699 4.985 25.225 4.982 36.923-.005zm-149.225-66.405c0-5.122 4.167-9.289 9.289-9.289h86.963c-4.883 5.228-8.596 11.558-10.716 18.577h-76.248c-5.122 0-9.288-4.167-9.288-9.288zm211.449 182.168v17.002h-161.371v-17.002c0-44.49 36.196-80.686 80.686-80.686s80.685 36.196 80.685 80.686zm54.4 180.056 23.974-131.549h17.142l23.973 131.549z"/></g></g></svg>